
CASCADE Topology V3, (c) Open Cascade
Locations 0
Curve2ds 317
7 0 0  1 2 2  2 2.5  -2 2.5 
 0 2 4 2
7 0 0  1 2 2  1.5 -2  1.5 2 
 0 2 4 2
8 0 4
7 0 0  1 2 2  2 -2.5  -2 -2.5 
 0 2 4 2
8 0 4
7 0 0  1 2 2  -1.5 -2  -1.5 2 
 0 2 4 2
7 0 0  1 2 2  -2 2.5  -2 -2.5 
 0 2 5 2
7 0 0  1 2 2  1.5 -2.5  1.5 2.5 
 0 2 5 2
8 0 5
7 0 0  1 2 2  2 2.5  2 -2.5 
 0 2 5 2
8 0 5
7 0 0  1 2 2  -1.5 -2.5  -1.5 2.5 
 0 2 5 2
7 0 0  1 2 2  -2 -2.5  2 -2.5 
 0 2 4 2
7 0 0  1 2 2  -1.5 2  -1.5 -2 
 0 2 4 2
7 0 0  1 2 2  2 -2.5  2 2.5 
 0 2 5 2
7 0 0  1 2 2  -1.5 2.5  -1.5 -2.5 
 0 2 5 2
7 0 0  1 2 2  1.5 2  -1.5 2 
 0 2 3 2
7 0 0  1 2 2  1.5 -2.5  -1.5 -2.5 
 0 2 3 2
8 0 3
7 0 0  1 2 2  -1.5 2  1.5 2 
 0 2 3 2
8 0 3
7 0 0  1 2 2  1.5 -2  -1.5 -2 
 0 2 3 2
8 0 3
7 0 0  1 2 2  -1.5 -2.5  1.5 -2.5 
 0 2 3 2
8 0 3
7 0 0  1 2 2  1.5 2.5  -1.5 2.5 
 0 2 3 2
8 0 3
7 0 0  1 2 2  -1.5 -2  1.5 -2 
 0 2 3 2
8 0 3
7 0 0  1 2 2  -1.5 2.5  1.5 2.5 
 0 2 3 2
7 0 0  1 2 2  -1.5 -2  -1.5 2 
 0 2 4 2
7 0 0  1 2 2  2 2.5  -2 2.5 
 0 2 4 2
8 0 4
7 0 0  1 2 2  1.5 -2  1.5 2 
 0 2 4 2
8 0 4
7 0 0  1 2 2  2 -2.5  -2 -2.5 
 0 2 4 2
8 0 4
7 0 0  1 2 2  2 2.5  -2 2.5 
 0 2 4 2
8 0 4
7 0 0  1 2 2  1.5 -2  1.5 2 
 0 2 4 2
8 0 4
7 0 0  1 2 2  2 -2.5  -2 -2.5 
 0 2 4 2
8 0 4
7 0 0  1 2 2  -1.5 -2  -1.5 2 
 0 2 4 2
7 0 0  1 2 2  -1.5 -2  1.5 -2 
 0 2 3 2
7 0 0  1 2 2  1.5 -2.5  -1.5 -2.5 
 0 2 3 2
8 0 3
7 0 0  1 2 2  1.5 -2  -1.5 -2 
 0 2 3 2
8 0 3
7 0 0  1 2 2  1.5 2.5  -1.5 2.5 
 0 2 3 2
7 0 0  1 2 2  1.5 2.5  -1.5 2.5 
 0 2 3 2
7 0 0  1 2 2  -1.5 2  1.5 2 
 0 2 3 2
8 0 3
7 0 0  1 2 2  -1.5 2.5  1.5 2.5 
 0 2 3 2
8 0 3
7 0 0  1 2 2  -1.5 -2  1.5 -2 
 0 2 3 2
7 0 0  1 2 2  -1.5 -2.5  -1.5 2.5 
 0 2 5 2
7 0 0  1 2 2  -2 2.5  -2 -2.5 
 0 2 5 2
8 0 5
7 0 0  1 2 2  1.5 -2.5  1.5 2.5 
 0 2 5 2
8 0 5
7 0 0  1 2 2  2 2.5  2 -2.5 
 0 2 5 2
8 0 5
7 0 0  1 2 2  -2 2.5  -2 -2.5 
 0 2 5 2
8 0 5
7 0 0  1 2 2  1.5 -2.5  1.5 2.5 
 0 2 5 2
8 0 5
7 0 0  1 2 2  2 2.5  2 -2.5 
 0 2 5 2
8 0 5
7 0 0  1 2 2  -1.5 -2.5  -1.5 2.5 
 0 2 5 2
7 0 0  1 2 2  -1.5 -2  1.5 -2 
 0 2 3 2
7 0 0  1 2 2  -1.5 2.5  1.5 2.5 
 0 2 3 2
7 0 0  1 2 2  1.5 2  1.5 -2 
 0 2 4 2
7 0 0  1 2 2  -2 -2.5  2 -2.5 
 0 2 4 2
8 0 4
7 0 0  1 2 2  -2 -2.5  2 -2.5 
 0 2 4 2
8 0 4
7 0 0  1 2 2  -1.5 2  -1.5 -2 
 0 2 4 2
7 0 0  1 2 2  1.5 2.5  1.5 -2.5 
 0 2 5 2
7 0 0  1 2 2  2 -2.5  2 2.5 
 0 2 5 2
8 0 5
7 0 0  1 2 2  2 -2.5  2 2.5 
 0 2 5 2
8 0 5
7 0 0  1 2 2  -1.5 2.5  -1.5 -2.5 
 0 2 5 2
7 0 0  1 2 2  2 2.5  -2 2.5 
 0 2 4 2
7 0 0  1 2 2  1.5 -2  1.5 2 
 0 2 4 2
7 0 0  1 2 2  -2 2.5  -2 -2.5 
 0 2 5 2
7 0 0  1 2 2  1.5 -2.5  1.5 2.5 
 0 2 5 2
8 0 5
7 0 0  1 2 2  2 2.5  2 -2.5 
 0 2 5 2
8 0 5
7 0 0  1 2 2  -1.5 -2.5  -1.5 2.5 
 0 2 5 2
7 0 0  1 2 2  2 -2.5  2 2.5 
 0 2 5 2
7 0 0  1 2 2  -1.5 2.5  -1.5 -2.5 
 0 2 5 2
7 0 0  1 2 2  1.5 2  -1.5 2 
 0 2 3 2
7 0 0  1 2 2  1.5 -2.5  -1.5 -2.5 
 0 2 3 2
8 0 3
7 0 0  1 2 2  -1.5 -2.5  1.5 -2.5 
 0 2 3 2
8 0 3
7 0 0  1 2 2  1.5 -2  -1.5 -2 
 0 2 3 2
8 0 3
7 0 0  1 2 2  -3 -2  3 -2 
 0 2 6 2
8 0 3
7 0 0  1 2 2  -3 2  3 2 
 0 2 6 2
7 0 0  1 2 2  -1.5 -2  -1.5 2 
 0 2 4 2
7 0 0  1 2 2  2 2.5  -2 2.5 
 0 2 4 2
8 0 4
7 0 0  1 2 2  2 2.5  -2 2.5 
 0 2 4 2
8 0 4
7 0 0  1 2 2  1.5 -2  1.5 2 
 0 2 4 2
7 0 0  1 2 2  -1.5 -2  1.5 -2 
 0 2 3 2
7 0 0  1 2 2  1.5 -2.5  -1.5 -2.5 
 0 2 3 2
7 0 0  1 2 2  -1.5 -2.5  -1.5 2.5 
 0 2 5 2
7 0 0  1 2 2  -2 2.5  -2 -2.5 
 0 2 5 2
8 0 5
7 0 0  1 2 2  1.5 -2.5  1.5 2.5 
 0 2 5 2
8 0 5
7 0 0  1 2 2  2 2.5  2 -2.5 
 0 2 5 2
8 0 5
7 0 0  1 2 2  -2 2.5  -2 -2.5 
 0 2 5 2
8 0 5
7 0 0  1 2 2  1.5 -2.5  1.5 2.5 
 0 2 5 2
8 0 5
7 0 0  1 2 2  2 2.5  2 -2.5 
 0 2 5 2
8 0 5
7 0 0  1 2 2  -1.5 -2.5  -1.5 2.5 
 0 2 5 2
7 0 0  1 2 2  1.5 2.5  1.5 -2.5 
 0 2 5 2
7 0 0  1 2 2  2 -2.5  2 2.5 
 0 2 5 2
8 0 5
7 0 0  1 2 2  2 -2.5  2 2.5 
 0 2 5 2
8 0 5
7 0 0  1 2 2  -1.5 2.5  -1.5 -2.5 
 0 2 5 2
7 0 0  1 2 2  2 2.5  -2 2.5 
 0 2 4 2
7 0 0  1 2 2  1.5 -2  1.5 2 
 0 2 4 2
8 0 4
7 0 0  1 2 2  2 -2.5  -2 -2.5 
 0 2 4 2
8 0 4
7 0 0  1 2 2  -1.5 -2  -1.5 2 
 0 2 4 2
7 0 0  1 2 2  -2 2.5  -2 -2.5 
 0 2 5 2
7 0 0  1 2 2  1.5 -2.5  1.5 2.5 
 0 2 5 2
8 0 5
7 0 0  1 2 2  2 2.5  2 -2.5 
 0 2 5 2
8 0 5
7 0 0  1 2 2  -1.5 -2.5  -1.5 2.5 
 0 2 5 2
7 0 0  1 2 2  -2 -2.5  2 -2.5 
 0 2 4 2
7 0 0  1 2 2  -1.5 2  -1.5 -2 
 0 2 4 2
7 0 0  1 2 2  1.5 2  -1.5 2 
 0 2 3 2
7 0 0  1 2 2  1.5 -2.5  -1.5 -2.5 
 0 2 3 2
8 0 3
7 0 0  1 2 2  -1.5 2  1.5 2 
 0 2 3 2
8 0 3
7 0 0  1 2 2  1.5 -2  -1.5 -2 
 0 2 3 2
8 0 3
7 0 0  1 2 2  -1.5 -2.5  1.5 -2.5 
 0 2 3 2
8 0 3
7 0 0  1 2 2  1.5 2.5  -1.5 2.5 
 0 2 3 2
8 0 3
7 0 0  1 2 2  -1.5 -2  1.5 -2 
 0 2 3 2
8 0 3
7 0 0  1 2 2  -1.5 2.5  1.5 2.5 
 0 2 3 2
7 0 0  1 2 2  -1.5 -2  -1.5 2 
 0 2 4 2
7 0 0  1 2 2  2 2.5  -2 2.5 
 0 2 4 2
8 0 4
7 0 0  1 2 2  1.5 -2  1.5 2 
 0 2 4 2
8 0 4
7 0 0  1 2 2  2 -2.5  -2 -2.5 
 0 2 4 2
8 0 4
7 0 0  1 2 2  2 2.5  -2 2.5 
 0 2 4 2
8 0 4
7 0 0  1 2 2  1.5 -2  1.5 2 
 0 2 4 2
8 0 4
7 0 0  1 2 2  2 -2.5  -2 -2.5 
 0 2 4 2
8 0 4
7 0 0  1 2 2  -1.5 -2  -1.5 2 
 0 2 4 2
7 0 0  1 2 2  1.5 2.5  -1.5 2.5 
 0 2 3 2
7 0 0  1 2 2  -1.5 2  1.5 2 
 0 2 3 2
8 0 3
7 0 0  1 2 2  -1.5 2.5  1.5 2.5 
 0 2 3 2
8 0 3
7 0 0  1 2 2  -1.5 -2  1.5 -2 
 0 2 3 2
7 0 0  1 2 2  -1.5 -2.5  -1.5 2.5 
 0 2 5 2
7 0 0  1 2 2  -2 2.5  -2 -2.5 
 0 2 5 2
8 0 5
7 0 0  1 2 2  -2 2.5  -2 -2.5 
 0 2 5 2
8 0 5
7 0 0  1 2 2  1.5 -2.5  1.5 2.5 
 0 2 5 2
8 0 5
7 0 0  1 2 2  2 2.5  2 -2.5 
 0 2 5 2
8 0 5
7 0 0  1 2 2  1.5 -2.5  1.5 2.5 
 0 2 5 2
8 0 5
7 0 0  1 2 2  2 2.5  2 -2.5 
 0 2 5 2
8 0 5
7 0 0  1 2 2  -1.5 -2.5  -1.5 2.5 
 0 2 5 2
7 0 0  1 2 2  1.5 2  1.5 -2 
 0 2 4 2
7 0 0  1 2 2  -2 -2.5  2 -2.5 
 0 2 4 2
8 0 4
7 0 0  1 2 2  -2 -2.5  2 -2.5 
 0 2 4 2
8 0 4
7 0 0  1 2 2  -1.5 2  -1.5 -2 
 0 2 4 2
7 0 0  1 2 2  1.5 2  -1.5 2 
 0 2 3 2
7 0 0  1 2 2  1.5 -2.5  -1.5 -2.5 
 0 2 3 2
8 0 3
7 0 0  1 2 2  1.5 -2  -1.5 -2 
 0 2 3 2
8 0 3
7 0 0  1 2 2  -1.5 -2.5  1.5 -2.5 
 0 2 3 2
8 0 3
7 0 0  1 2 2  1.5 2.5  -1.5 2.5 
 0 2 3 2
8 0 3
7 0 0  1 2 2  -1.5 2  1.5 2 
 0 2 3 2
8 0 3
7 0 0  1 2 2  -1.5 -2  1.5 -2 
 0 2 3 2
8 0 3
7 0 0  1 2 2  -1.5 2.5  1.5 2.5 
 0 2 3 2
7 0 0  1 2 2  -1.5 -2  -1.5 2 
 0 2 4 2
7 0 0  1 2 2  2 2.5  -2 2.5 
 0 2 4 2
8 0 4
7 0 0  1 2 2  1.5 -2  1.5 2 
 0 2 4 2
8 0 4
7 0 0  1 2 2  2 -2.5  -2 -2.5 
 0 2 4 2
7 0 0  1 2 2  -1.5 -2  1.5 -2 
 0 2 3 2
7 0 0  1 2 2  1.5 -2.5  -1.5 -2.5 
 0 2 3 2
8 0 3
7 0 0  1 2 2  1.5 -2  -1.5 -2 
 0 2 3 2
8 0 3
7 0 0  1 2 2  1.5 2.5  -1.5 2.5 
 0 2 3 2
7 0 0  1 2 2  1.5 2.5  -1.5 2.5 
 0 2 3 2
7 0 0  1 2 2  -1.5 2  1.5 2 
 0 2 3 2
8 0 3
7 0 0  1 2 2  -1.5 2.5  1.5 2.5 
 0 2 3 2
8 0 3
7 0 0  1 2 2  -1.5 -2  1.5 -2 
 0 2 3 2
7 0 0  1 2 2  -1.5 -2.5  -1.5 2.5 
 0 2 5 2
7 0 0  1 2 2  -2 2.5  -2 -2.5 
 0 2 5 2
8 0 5
7 0 0  1 2 2  1.5 -2.5  1.5 2.5 
 0 2 5 2
8 0 5
7 0 0  1 2 2  2 2.5  2 -2.5 
 0 2 5 2
7 0 0  1 2 2  -1.5 -2  1.5 -2 
 0 2 3 2
7 0 0  1 2 2  -1.5 2.5  1.5 2.5 
 0 2 3 2
7 0 0  1 2 2  1.5 2  1.5 -2 
 0 2 4 2
7 0 0  1 2 2  -2 -2.5  2 -2.5 
 0 2 4 2
7 0 0  1 2 2  1.5 2.5  1.5 -2.5 
 0 2 5 2
7 0 0  1 2 2  2 -2.5  2 2.5 
 0 2 5 2
7 0 0  1 2 2  2 2.5  -2 2.5 
 0 2 4 2
7 0 0  1 2 2  1.5 -2  1.5 2 
 0 2 4 2
8 0 4
7 0 0  1 2 2  2 -2  -2 -2 
 0 2 4 2
8 0 4
7 0 0  1 2 2  -3 -2  -3 2 
 0 2 4 2
7 0 0  1 2 2  -2 2.5  -2 -2.5 
 0 2 5 2
7 0 0  1 2 2  1.5 -2.5  1.5 2.5 
 0 2 5 2
8 0 5
7 0 0  1 2 2  2 2.5  2 -2.5 
 0 2 5 2
8 0 5
7 0 0  1 2 2  -1.5 -2.5  -1.5 2.5 
 0 2 5 2
7 0 0  1 2 2  1.5 2  -1.5 2 
 0 2 3 2
7 0 0  1 2 2  1.5 -2.5  -1.5 -2.5 
 0 2 3 2
8 0 3
7 0 0  1 2 2  -1.5 -2.5  1.5 -2.5 
 0 2 3 2
8 0 3
7 0 0  1 2 2  -3 2  3 2 
 0 2 6 2
8 0 3
7 0 0  1 2 2  1.5 -2  -1.5 -2 
 0 2 3 2
8 0 3
7 0 0  1 2 2  3 2  -3 2 
 0 2 6 2
7 0 0  1 2 2  -1.5 -2  -1.5 2 
 0 2 4 2
7 0 0  1 2 2  2 2.5  -2 2.5 
 0 2 4 2
8 0 4
7 0 0  1 2 2  2 2.5  -2 2.5 
 0 2 4 2
7 0 0  2 3 2  5.1756813540162928e-17 -1.9999999999999996  5.1756813540162934e-17 6.6368479339724427e-16  5.1756813540162928e-17 1.9999999999999996 
 0 3 4 3
8 0 4
7 0 0  1 2 2  1.5 -2  1.5 2 
 0 2 4 2
7 0 0  1 2 2  -1.5 -2.5  -1.5 2.5 
 0 2 5 2
7 0 0  1 2 2  -2 2.5  -2 -2.5 
 0 2 5 2
8 0 5
7 0 0  1 2 2  -2 2.5  -2 -2.5 
 0 2 5 2
8 0 5
7 0 0  1 2 2  1.5 -2.5  1.5 2.5 
 0 2 5 2
8 0 5
7 0 0  1 2 2  2 2.5  2 -2.5 
 0 2 5 2
8 0 5
7 0 0  1 2 2  1.5 -2.5  1.5 2.5 
 0 2 5 2
8 0 5
7 0 0  1 2 2  2 2.5  2 -2.5 
 0 2 5 2
8 0 5
7 0 0  1 2 2  -1.5 -2.5  -1.5 2.5 
 0 2 5 2
7 0 0  1 2 2  1.5 2  -1.5 2 
 0 2 3 2
7 0 0  1 2 2  1.5 -2.5  -1.5 -2.5 
 0 2 3 2
8 0 3
7 0 0  1 2 2  -1.5 -2.5  1.5 -2.5 
 0 2 3 2
8 0 3
7 0 0  1 2 2  0 -2  3 -2 
 0 2 3 2
8 0 3
7 0 0  1 2 2  0 2  3 2 
 0 2 3 2
8 0 3
7 0 0  1 2 2  1.5 -2  -1.5 -2 
 0 2 3 2
7 0 0  1 2 2  -1.5 -2  -1.5 2 
 0 2 4 2
7 0 0  1 2 2  2 2.5  -2 2.5 
 0 2 4 2
7 0 0  1 2 2  -1.5 -2  1.5 -2 
 0 2 3 2
7 0 0  1 2 2  1.5 -2.5  -1.5 -2.5 
 0 2 3 2
7 0 0  1 2 2  -1.5 -2.5  -1.5 2.5 
 0 2 5 2
7 0 0  1 2 2  -2 2.5  -2 -2.5 
 0 2 5 2
8 0 5
7 0 0  1 2 2  1.5 -2.5  1.5 2.5 
 0 2 5 2
8 0 5
7 0 0  1 2 2  2 2.5  2 -2.5 
 0 2 5 2
7 0 0  1 2 2  1.5 2.5  1.5 -2.5 
 0 2 5 2
7 0 0  1 2 2  2 -2.5  2 2.5 
 0 2 5 2
7 0 0  1 2 2  2 2.5  -2 2.5 
 0 2 4 2
7 0 0  1 2 2  1.5 -2  1.5 2 
 0 2 4 2
8 0 4
7 0 0  1 2 2  2 -2.5  -2 -2.5 
 0 2 4 2
8 0 4
7 0 0  1 2 2  -1.5 -2  -1.5 2 
 0 2 4 2
7 0 0  1 2 2  -2 2.5  -2 -2.5 
 0 2 5 2
7 0 0  1 2 2  1.5 -2.5  1.5 2.5 
 0 2 5 2
7 0 0  1 2 2  -2 -2.5  2 -2.5 
 0 2 4 2
7 0 0  1 2 2  -1.5 2  -1.5 -2 
 0 2 4 2
7 0 0  1 2 2  1.5 2  -1.5 2 
 0 2 3 2
7 0 0  1 2 2  1.5 -2.5  -1.5 -2.5 
 0 2 3 2
8 0 3
7 0 0  1 2 2  -1.5 2  1.5 2 
 0 2 3 2
8 0 3
7 0 0  1 2 2  1.5 2.5  -1.5 2.5 
 0 2 3 2
7 0 0  1 2 2  -1.5 -2  -1.5 2 
 0 2 4 2
7 0 0  1 2 2  2 2.5  -2 2.5 
 0 2 4 2
8 0 4
7 0 0  1 2 2  1.5 -2  1.5 2 
 0 2 4 2
8 0 4
7 0 0  1 2 2  2 -2.5  -2 -2.5 
 0 2 4 2
8 0 4
7 0 0  1 2 2  2 2.5  -2 2.5 
 0 2 4 2
8 0 4
7 0 0  1 2 2  1.5 -2  1.5 2 
 0 2 4 2
8 0 4
7 0 0  1 2 2  2 -2.5  -2 -2.5 
 0 2 4 2
8 0 4
7 0 0  1 2 2  -1.5 -2  -1.5 2 
 0 2 4 2
7 0 0  1 2 2  1.5 2.5  -1.5 2.5 
 0 2 3 2
7 0 0  1 2 2  -1.5 2  1.5 2 
 0 2 3 2
7 0 0  1 2 2  -1.5 -2.5  -1.5 2.5 
 0 2 5 2
7 0 0  1 2 2  -2 2.5  -2 -2.5 
 0 2 5 2
8 0 5
7 0 0  1 2 2  -2 2.5  -2 -2.5 
 0 2 5 2
8 0 5
7 0 0  1 2 2  1.5 -2.5  1.5 2.5 
 0 2 5 2
7 0 0  1 2 2  1.5 2  1.5 -2 
 0 2 4 2
7 0 0  1 2 2  -2 -2.5  2 -2.5 
 0 2 4 2
8 0 4
7 0 0  1 2 2  -2 -2.5  2 -2.5 
 0 2 4 2
8 0 4
7 0 0  1 2 2  -1.5 2  -1.5 -2 
 0 2 4 2
7 0 0  1 2 2  1.5 2  -1.5 2 
 0 2 3 2
7 0 0  1 2 2  1.5 -2.5  -1.5 -2.5 
 0 2 3 2
8 0 3
7 0 0  1 2 2  -1.5 2  1.5 2 
 0 2 3 2
8 0 3
7 0 0  1 2 2  1.5 -2  -1.5 -2 
 0 2 3 2
8 0 3
7 0 0  1 2 2  -1.5 -2.5  1.5 -2.5 
 0 2 3 2
8 0 3
7 0 0  1 2 2  1.5 2.5  -1.5 2.5 
 0 2 3 2
8 0 3
7 0 0  1 2 2  -1.5 -2  1.5 -2 
 0 2 3 2
8 0 3
7 0 0  1 2 2  -1.5 2.5  1.5 2.5 
 0 2 3 2
7 0 0  1 2 2  -1.5 -2  -1.5 2 
 0 2 4 2
7 0 0  1 2 2  2 2.5  -2 2.5 
 0 2 4 2
8 0 4
7 0 0  1 2 2  1.5 -2  1.5 2 
 0 2 4 2
8 0 4
7 0 0  1 2 2  2 -2.5  -2 -2.5 
 0 2 4 2
7 0 0  1 2 2  1.5 2.5  -1.5 2.5 
 0 2 3 2
7 0 0  1 2 2  -1.5 2  1.5 2 
 0 2 3 2
8 0 3
7 0 0  1 2 2  -1.5 2.5  1.5 2.5 
 0 2 3 2
8 0 3
7 0 0  1 2 2  -1.5 -2  1.5 -2 
 0 2 3 2
7 0 0  1 2 2  -1.5 -2.5  -1.5 2.5 
 0 2 5 2
7 0 0  1 2 2  -2 2.5  -2 -2.5 
 0 2 5 2
8 0 5
7 0 0  1 2 2  1.5 -2.5  1.5 2.5 
 0 2 5 2
8 0 5
7 0 0  1 2 2  2 2.5  2 -2.5 
 0 2 5 2
7 0 0  1 2 2  1.5 2  1.5 -2 
 0 2 4 2
7 0 0  1 2 2  -2 -2.5  2 -2.5 
 0 2 4 2
7 0 0  1 2 2  2 2  -2 2 
 0 2 4 2
7 0 0  1 2 2  3 -2  3 2 
 0 2 4 2
7 0 0  1 2 2  -2 2  -2 -2 
 0 2 4 2
7 0 0  1 2 2  3 -2  3 2 
 0 2 4 2
7 0 0  1 2 2  2 -2  2 2 
 0 2 4 2
7 0 0  1 2 2  -3 2  -3 -2 
 0 2 4 2
7 0 0  1 2 2  3 2  -3 2 
 0 2 6 2
7 0 0  1 2 2  3 -2  -3 -2 
 0 2 6 2
7 0 0  1 2 2  -3 -2  -3 2 
 0 2 4 2
7 0 0  1 2 2  2 2  -2 2 
 0 2 4 2
7 0 0  1 2 2  -3 -2  3 -2 
 0 2 6 2
7 0 0  1 2 2  3 -2  -3 -2 
 0 2 6 2
7 0 0  1 2 2  1.5 2  -1.5 2 
 0 2 3 2
7 0 0  1 2 2  1.5 -2.5  -1.5 -2.5 
 0 2 3 2
8 0 3
7 0 0  1 2 2  -1.5 -2.5  1.5 -2.5 
 0 2 3 2
8 0 3
7 0 0  1 2 2  0 2  3 2 
 0 2 3 2
8 0 3
7 0 0  1 2 2  0 2  -3 2 
 0 2 3 2
8 0 3
7 0 0  1 2 2  1.5 -2  -1.5 -2 
 0 2 3 2
7 0 0  1 2 2  -3 -2  -3 2 
 0 2 4 2
7 0 0  1 2 2  -2 2  -2 -2 
 0 2 4 2
7 0 0  1 2 2  -1.5 -2  -1.5 2 
 0 2 4 2
7 0 0  1 2 2  2 2.5  -2 2.5 
 0 2 4 2
8 0 4
7 0 0  1 2 2  3 -2  3 2 
 0 2 4 2
8 0 4
7 0 0  1 2 2  2 -2  -2 -2 
 0 2 4 2
7 0 0  1 2 2  3 2  3 -2 
 0 2 4 2
7 0 0  1 2 2  2 -2  2 2 
 0 2 4 2
7 0 0  1 2 2  2 2.5  -2 2.5 
 0 2 4 2
7 0 0  1 2 2  1.5 -2  1.5 2 
 0 2 4 2
7 0 0  1 2 2  -2 2.5  -2 -2.5 
 0 2 5 2
7 0 0  1 2 2  1.5 -2.5  1.5 2.5 
 0 2 5 2
7 0 0  1 2 2  1.5 2  -1.5 2 
 0 2 3 2
7 0 0  1 2 2  1.5 -2.5  -1.5 -2.5 
 0 2 3 2
7 0 0  1 2 2  -1.5 -2  -1.5 2 
 0 2 4 2
7 0 0  1 2 2  2 2.5  -2 2.5 
 0 2 4 2
8 0 4
7 0 0  1 2 2  2 2.5  -2 2.5 
 0 2 4 2
8 0 4
7 0 0  1 2 2  1.5 -2  1.5 2 
 0 2 4 2
7 0 0  1 2 2  -1.5 -2.5  -1.5 2.5 
 0 2 5 2
7 0 0  1 2 2  -2 2.5  -2 -2.5 
 0 2 5 2
8 0 5
7 0 0  1 2 2  -2 2.5  -2 -2.5 
 0 2 5 2
8 0 5
7 0 0  1 2 2  1.5 -2.5  1.5 2.5 
 0 2 5 2
7 0 0  1 2 2  -1.5 -2.5  -1.5 2.5 
 0 2 5 2
7 0 0  1 2 2  -2 2.5  -2 -2.5 
 0 2 5 2
8 0 5
7 0 0  1 2 2  1.5 -2.5  1.5 2.5 
 0 2 5 2
8 0 5
7 0 0  1 2 2  2 2.5  2 -2.5 
 0 2 5 2
7 0 0  1 2 2  1.5 2  -1.5 2 
 0 2 3 2
7 0 0  1 2 2  1.5 -2.5  -1.5 -2.5 
 0 2 3 2
8 0 3
7 0 0  1 2 2  -1.5 2  1.5 2 
 0 2 3 2
8 0 3
7 0 0  1 2 2  1.5 2.5  -1.5 2.5 
 0 2 3 2
7 0 0  1 2 2  -1.5 -2  -1.5 2 
 0 2 4 2
7 0 0  1 2 2  2 2.5  -2 2.5 
 0 2 4 2
8 0 4
7 0 0  1 2 2  1.5 -2  1.5 2 
 0 2 4 2
8 0 4
7 0 0  1 2 2  2 -2.5  -2 -2.5 
 0 2 4 2
7 0 0  1 2 2  1.5 2.5  -1.5 2.5 
 0 2 3 2
7 0 0  1 2 2  -1.5 2  1.5 2 
 0 2 3 2
7 0 0  1 2 2  -1.5 -2.5  -1.5 2.5 
 0 2 5 2
7 0 0  1 2 2  -2 2.5  -2 -2.5 
 0 2 5 2
7 0 0  1 2 2  1.5 2  1.5 -2 
 0 2 4 2
7 0 0  1 2 2  -2 -2.5  2 -2.5 
 0 2 4 2
7 0 0  1 2 2  1.5 2  -1.5 2 
 0 2 3 2
7 0 0  1 2 2  1.5 -2.5  -1.5 -2.5 
 0 2 3 2
7 0 0  1 2 2  -1.5 -2  -1.5 2 
 0 2 4 2
7 0 0  1 2 2  2 2.5  -2 2.5 
 0 2 4 2
7 0 0  1 2 2  -1.5 -2.5  -1.5 2.5 
 0 2 5 2
7 0 0  1 2 2  -2 2.5  -2 -2.5 
 0 2 5 2
Curves 83
8 0 4
7 0 0  1 2 2  0 5 0  4 5 0 
 0 2 4 2
8 0 5
7 0 0  1 2 2  4 5 0  4 0 0 
 0 2 5 2
8 0 4
7 0 0  1 2 2  4 0 0  0 0 0 
 0 2 4 2
8 0 5
7 0 0  1 2 2  0 0 0  0 5 0 
 0 2 5 2
8 0 3
7 0 0  1 2 2  4 5 0  4 5 3 
 0 2 3 2
8 0 4
7 0 0  1 2 2  0 5 3  4 5 3 
 0 2 4 2
8 0 3
7 0 0  1 2 2  0 5 3  0 5 0 
 0 2 3 2
8 0 3
7 0 0  1 2 2  4 0 0  4 0 3 
 0 2 3 2
8 0 5
7 0 0  1 2 2  4 5 3  4 0 3 
 0 2 5 2
8 0 3
7 0 0  1 2 2  0 0 0  0 0 3 
 0 2 3 2
8 0 4
7 0 0  1 2 2  4 0 3  0 0 3 
 0 2 4 2
8 0 5
7 0 0  1 2 2  0 0 3  0 5 3 
 0 2 5 2
8 0 4
7 0 0  1 2 2  0 10 0  4 10 0 
 0 2 4 2
8 0 5
7 0 0  1 2 2  4 10 0  4 5 0 
 0 2 5 2
8 0 5
7 0 0  1 2 2  0 5 0  0 10 0 
 0 2 5 2
8 0 3
7 0 0  1 2 2  4 10 0  4 10 3 
 0 2 3 2
8 0 4
7 0 0  1 2 2  0 10 3  4 10 3 
 0 2 4 2
8 0 3
7 0 0  1 2 2  0 10 3  0 10 0 
 0 2 3 2
8 0 5
7 0 0  1 2 2  4 10 3  4 5 3 
 0 2 5 2
8 0 5
7 0 0  1 2 2  0 5 3  0 10 3 
 0 2 5 2
8 0 4
7 0 0  1 2 2  4 5 0  8 5 0 
 0 2 4 2
8 0 5
7 0 0  1 2 2  8 5 0  8 0 0 
 0 2 5 2
8 0 4
7 0 0  1 2 2  8 0 0  4 0 0 
 0 2 4 2
8 0 3
7 0 0  1 2 2  8 5 0  8 5 3 
 0 2 3 2
8 0 4
7 0 0  1 2 2  4 5 3  8 5 3 
 0 2 4 2
8 0 3
7 0 0  1 2 2  8 0 0  8 0 3 
 0 2 3 2
8 0 5
7 0 0  1 2 2  8 5 3  8 0 3 
 0 2 5 2
8 0 4
7 0 0  1 2 2  8 0 3  4 0 3 
 0 2 4 2
8 0 3
7 0 0  1 2 2  4 5 3  4 5 6 
 0 2 3 2
8 0 4
7 0 0  1 2 2  0 5 6  4 5 6 
 0 2 4 2
8 0 3
7 0 0  1 2 2  0 5 6  0 5 3 
 0 2 3 2
8 0 3
7 0 0  1 2 2  4 0 3  4 0 6 
 0 2 3 2
8 0 5
7 0 0  1 2 2  4 5 6  4 0 6 
 0 2 5 2
8 0 3
7 0 0  1 2 2  0 0 3  0 0 6 
 0 2 3 2
8 0 4
7 0 0  1 2 2  4 0 6  0 0 6 
 0 2 4 2
8 0 5
7 0 0  1 2 2  0 0 6  0 5 6 
 0 2 5 2
8 0 4
7 0 0  1 2 2  4 10 0  8 10 0 
 0 2 4 2
8 0 5
7 0 0  1 2 2  8 10 0  8 5 0 
 0 2 5 2
8 0 3
7 0 0  1 2 2  8 10 0  8 10 3 
 0 2 3 2
8 0 4
7 0 0  1 2 2  4 10 3  8 10 3 
 0 2 4 2
8 0 5
7 0 0  1 2 2  8 10 3  8 5 3 
 0 2 5 2
8 0 3
7 0 0  1 2 2  4 10 3  4 10 6 
 0 2 3 2
8 0 4
7 0 0  1 2 2  0 10 6  4 10 6 
 0 2 4 2
8 0 3
7 0 0  1 2 2  0 10 6  0 10 3 
 0 2 3 2
8 0 5
7 0 0  1 2 2  4 10 6  4 5 6 
 0 2 5 2
8 0 5
7 0 0  1 2 2  0 5 6  0 10 6 
 0 2 5 2
8 0 4
7 0 0  1 2 2  8 5 0  12 5 0 
 0 2 4 2
8 0 5
7 0 0  1 2 2  12 5 0  12 0 0 
 0 2 5 2
8 0 4
7 0 0  1 2 2  12 0 0  8 0 0 
 0 2 4 2
8 0 3
7 0 0  1 2 2  12 5 0  12 5 3 
 0 2 3 2
8 0 4
7 0 0  1 2 2  8 5 3  12 5 3 
 0 2 4 2
8 0 3
7 0 0  1 2 2  12 0 0  12 0 3 
 0 2 3 2
8 0 5
7 0 0  1 2 2  12 5 3  12 0 3 
 0 2 5 2
8 0 4
7 0 0  1 2 2  12 0 3  8 0 3 
 0 2 4 2
8 0 3
7 0 0  1 2 2  8 5 3  8 5 6 
 0 2 3 2
8 0 4
7 0 0  1 2 2  4 5 6  8 5 6 
 0 2 4 2
8 0 3
7 0 0  1 2 2  8 0 3  8 0 6 
 0 2 3 2
8 0 5
7 0 0  1 2 2  8 5 6  8 0 6 
 0 2 5 2
8 0 4
7 0 0  1 2 2  8 0 6  4 0 6 
 0 2 4 2
8 0 4
7 0 0  1 2 2  4 14 0  8 14 0 
 0 2 4 2
8 0 4
7 0 0  1 2 2  8 14 0  8 10 0 
 0 2 4 2
8 0 4
7 0 0  1 2 2  4 10 0  4 14 0 
 0 2 4 2
8 0 6
7 0 0  1 2 2  8 14 0  8 14 6 
 0 2 6 2
8 0 4
7 0 0  1 2 2  4 14 6  8 14 6 
 0 2 4 2
8 0 6
7 0 0  1 2 2  4 14 6  4 14 0 
 0 2 6 2
8 0 3
7 0 0  1 2 2  8 10 3  8 10 6 
 0 2 3 2
8 0 4
7 0 0  1 2 2  8 14 6  8 10 6 
 0 2 4 2
8 0 4
7 0 0  1 2 2  4 10 6  8 10 6 
 0 2 4 2
8 0 4
7 0 0  1 2 2  4 10 6  4 14 6 
 0 2 4 2
8 0 4
7 0 0  1 2 2  8 10 0  12 10 0 
 0 2 4 2
8 0 5
7 0 0  1 2 2  12 10 0  12 5 0 
 0 2 5 2
8 0 3
7 0 0  1 2 2  12 10 0  12 10 3 
 0 2 3 2
8 0 4
7 0 0  1 2 2  8 10 3  12 10 3 
 0 2 4 2
8 0 5
7 0 0  1 2 2  12 10 3  12 5 3 
 0 2 5 2
8 0 5
7 0 0  1 2 2  8 10 6  8 5 6 
 0 2 5 2
8 0 3
7 0 0  1 2 2  12 5 3  12 5 6 
 0 2 3 2
8 0 4
7 0 0  1 2 2  8 5 6  12 5 6 
 0 2 4 2
8 0 3
7 0 0  1 2 2  12 0 3  12 0 6 
 0 2 3 2
8 0 5
7 0 0  1 2 2  12 5 6  12 0 6 
 0 2 5 2
8 0 4
7 0 0  1 2 2  12 0 6  8 0 6 
 0 2 4 2
8 0 3
7 0 0  1 2 2  12 10 3  12 10 6 
 0 2 3 2
8 0 4
7 0 0  1 2 2  8 10 6  12 10 6 
 0 2 4 2
8 0 5
7 0 0  1 2 2  12 10 6  12 5 6 
 0 2 5 2
Polygon3D 0
PolygonOnTriangulations 0
Surfaces 78
9 0 0 0 0 1 1 2 2 2 2 4 0 0  4 5 0  
0 0 0  0 5 0  

-2 2
2 2

-2.5 2
2.5 2

9 0 0 0 0 1 1 2 2 2 2 0 5 3  4 5 3  
0 5 0  4 5 0  

-1.5 2
1.5 2

-2 2
2 2

9 0 0 0 0 1 1 2 2 2 2 4 5 0  4 10 0  
0 5 0  0 10 0  

-2 2
2 2

-2.5 2
2.5 2

9 0 0 0 0 1 1 2 2 2 2 0 5 0  4 5 0  
0 5 3  4 5 3  

-1.5 2
1.5 2

-2 2
2 2

9 0 0 0 0 1 1 2 2 2 2 4 5 3  4 0 3  
4 5 0  4 0 0  

-1.5 2
1.5 2

-2.5 2
2.5 2

9 0 0 0 0 1 1 2 2 2 2 8 0 0  8 5 0  
4 0 0  4 5 0  

-2 2
2 2

-2.5 2
2.5 2

9 0 0 0 0 1 1 2 2 2 2 4 5 0  4 0 0  
4 5 3  4 0 3  

-1.5 2
1.5 2

-2.5 2
2.5 2

9 0 0 0 0 1 1 2 2 2 2 0 0 0  4 0 0  
0 0 3  4 0 3  

-1.5 2
1.5 2

-2 2
2 2

9 0 0 0 0 1 1 2 2 2 2 0 5 0  0 0 0  
0 5 3  0 0 3  

-1.5 2
1.5 2

-2.5 2
2.5 2

9 0 0 0 0 1 1 2 2 2 2 4 5 3  8 5 3  
4 5 0  8 5 0  

-1.5 2
1.5 2

-2 2
2 2

9 0 0 0 0 1 1 2 2 2 2 4 10 3  4 5 3  
4 10 0  4 5 0  

-1.5 2
1.5 2

-2.5 2
2.5 2

9 0 0 0 0 1 1 2 2 2 2 4 5 0  8 5 0  
4 5 3  8 5 3  

-1.5 2
1.5 2

-2 2
2 2

9 0 0 0 0 1 1 2 2 2 2 4 10 0  4 5 0  
4 10 3  4 5 3  

-1.5 2
1.5 2

-2.5 2
2.5 2

9 0 0 0 0 1 1 2 2 2 2 4 0 3  4 5 3  
0 0 3  0 5 3  

-2 2
2 2

-2.5 2
2.5 2

9 0 0 0 0 1 1 2 2 2 2 4 5 3  4 10 3  
0 5 3  0 10 3  

-2 2
2 2

-2.5 2
2.5 2

9 0 0 0 0 1 1 2 2 2 2 4 0 3  4 5 3  
0 0 3  0 5 3  

-2 2
2 2

-2.5 2
2.5 2

9 0 0 0 0 1 1 2 2 2 2 0 5 6  4 5 6  
0 5 3  4 5 3  

-1.5 2
1.5 2

-2 2
2 2

9 0 0 0 0 1 1 2 2 2 2 4 5 3  4 10 3  
0 5 3  0 10 3  

-2 2
2 2

-2.5 2
2.5 2

9 0 0 0 0 1 1 2 2 2 2 0 5 3  4 5 3  
0 5 6  4 5 6  

-1.5 2
1.5 2

-2 2
2 2

9 0 0 0 0 1 1 2 2 2 2 0 10 0  0 5 0  
0 10 3  0 5 3  

-1.5 2
1.5 2

-2.5 2
2.5 2

9 0 0 0 0 1 1 2 2 2 2 4 0 0  8 0 0  
4 0 3  8 0 3  

-1.5 2
1.5 2

-2 2
2 2

9 0 0 0 0 1 1 2 2 2 2 8 0 3  8 5 3  
4 0 3  4 5 3  

-2 2
2 2

-2.5 2
2.5 2

9 0 0 0 0 1 1 2 2 2 2 4 5 6  4 0 6  
4 5 3  4 0 3  

-1.5 2
1.5 2

-2.5 2
2.5 2

9 0 0 0 0 1 1 2 2 2 2 8 0 3  8 5 3  
4 0 3  4 5 3  

-2 2
2 2

-2.5 2
2.5 2

9 0 0 0 0 1 1 2 2 2 2 4 5 3  4 0 3  
4 5 6  4 0 6  

-1.5 2
1.5 2

-2.5 2
2.5 2

9 0 0 0 0 1 1 2 2 2 2 0 0 3  4 0 3  
0 0 6  4 0 6  

-1.5 2
1.5 2

-2 2
2 2

9 0 0 0 0 1 1 2 2 2 2 0 5 3  0 0 3  
0 5 6  0 0 6  

-1.5 2
1.5 2

-2.5 2
2.5 2

9 0 0 0 0 1 1 2 2 2 2 0 10 3  4 10 3  
0 10 0  4 10 0  

-1.5 2
1.5 2

-2 2
2 2

9 0 0 0 0 1 1 2 2 2 2 8 5 0  8 10 0  
4 5 0  4 10 0  

-2 2
2 2

-2.5 2
2.5 2

9 0 0 0 0 1 1 2 2 2 2 4 10 3  8 10 3  
4 10 0  8 10 0  

-1.5 2
1.5 2

-2 2
2 2

9 0 0 0 0 1 1 2 2 2 2 4 10 0  8 10 0  
4 10 6  8 10 6  

-3 2
3 2

-2 2
2 2

9 0 0 0 0 1 1 2 2 2 2 4 14 0  4 10 0  
4 14 6  4 10 6  

-3 2
3 2

-2 2
2 2

9 0 0 0 0 1 1 2 2 2 2 0 10 6  4 10 6  
0 10 3  4 10 3  

-1.5 2
1.5 2

-2 2
2 2

9 0 0 0 0 1 1 2 2 2 2 8 5 3  8 10 3  
4 5 3  4 10 3  

-2 2
2 2

-2.5 2
2.5 2

9 0 0 0 0 1 1 2 2 2 2 4 10 6  4 5 6  
4 10 3  4 5 3  

-1.5 2
1.5 2

-2.5 2
2.5 2

9 0 0 0 0 1 1 2 2 2 2 8 5 3  8 10 3  
4 5 3  4 10 3  

-2 2
2 2

-2.5 2
2.5 2

9 0 0 0 0 1 1 2 2 2 2 4 10 3  4 5 3  
4 10 6  4 5 6  

-1.5 2
1.5 2

-2.5 2
2.5 2

9 0 0 0 0 1 1 2 2 2 2 0 10 3  0 5 3  
0 10 6  0 5 6  

-1.5 2
1.5 2

-2.5 2
2.5 2

9 0 0 0 0 1 1 2 2 2 2 8 5 3  8 0 3  
8 5 0  8 0 0  

-1.5 2
1.5 2

-2.5 2
2.5 2

9 0 0 0 0 1 1 2 2 2 2 12 0 0  12 5 0  
8 0 0  8 5 0  

-2 2
2 2

-2.5 2
2.5 2

9 0 0 0 0 1 1 2 2 2 2 8 5 0  8 0 0  
8 5 3  8 0 3  

-1.5 2
1.5 2

-2.5 2
2.5 2

9 0 0 0 0 1 1 2 2 2 2 8 5 3  12 5 3  
8 5 0  12 5 0  

-1.5 2
1.5 2

-2 2
2 2

9 0 0 0 0 1 1 2 2 2 2 8 10 3  8 5 3  
8 10 0  8 5 0  

-1.5 2
1.5 2

-2.5 2
2.5 2

9 0 0 0 0 1 1 2 2 2 2 8 5 0  12 5 0  
8 5 3  12 5 3  

-1.5 2
1.5 2

-2 2
2 2

9 0 0 0 0 1 1 2 2 2 2 8 10 0  8 5 0  
8 10 3  8 5 3  

-1.5 2
1.5 2

-2.5 2
2.5 2

9 0 0 0 0 1 1 2 2 2 2 4 5 6  8 5 6  
4 5 3  8 5 3  

-1.5 2
1.5 2

-2 2
2 2

9 0 0 0 0 1 1 2 2 2 2 4 5 3  8 5 3  
4 5 6  8 5 6  

-1.5 2
1.5 2

-2 2
2 2

9 0 0 0 0 1 1 2 2 2 2 8 0 0  12 0 0  
8 0 3  12 0 3  

-1.5 2
1.5 2

-2 2
2 2

9 0 0 0 0 1 1 2 2 2 2 12 0 3  12 5 3  
8 0 3  8 5 3  

-2 2
2 2

-2.5 2
2.5 2

9 0 0 0 0 1 1 2 2 2 2 8 5 6  8 0 6  
8 5 3  8 0 3  

-1.5 2
1.5 2

-2.5 2
2.5 2

9 0 0 0 0 1 1 2 2 2 2 12 0 3  12 5 3  
8 0 3  8 5 3  

-2 2
2 2

-2.5 2
2.5 2

9 0 0 0 0 1 1 2 2 2 2 8 5 3  8 0 3  
8 5 6  8 0 6  

-1.5 2
1.5 2

-2.5 2
2.5 2

9 0 0 0 0 1 1 2 2 2 2 4 0 3  8 0 3  
4 0 6  8 0 6  

-1.5 2
1.5 2

-2 2
2 2

9 0 0 0 0 1 1 2 2 2 2 4 0 6  4 5 6  
0 0 6  0 5 6  

-2 2
2 2

-2.5 2
2.5 2

9 0 0 0 0 1 1 2 2 2 2 4 5 6  4 10 6  
0 5 6  0 10 6  

-2 2
2 2

-2.5 2
2.5 2

9 0 0 0 0 1 1 2 2 2 2 8 0 6  8 5 6  
4 0 6  4 5 6  

-2 2
2 2

-2.5 2
2.5 2

9 0 0 0 0 1 1 2 2 2 2 8 10 0  8 14 0  
4 10 0  4 14 0  

-2 2
2 2

-2 2
2 2

9 0 0 0 0 1 1 2 2 2 2 12 5 0  12 10 0  
8 5 0  8 10 0  

-2 2
2 2

-2.5 2
2.5 2

9 0 0 0 0 1 1 2 2 2 2 8 10 3  12 10 3  
8 10 0  12 10 0  

-1.5 2
1.5 2

-2 2
2 2

9 0 0 0 0 1 1 2 2 2 2 8 14 6  8 10 6  
8 14 0  8 10 0  

-3 2
3 2

-2 2
2 2

9 0 0 0 0 1 1 2 2 2 2 4 10 6  8 10 6  
4 10 3  8 10 3  

-1.5 2
1.5 2

-2 2
2 2

9 0 0 0 0 1 1 2 2 2 2 12 5 3  12 10 3  
8 5 3  8 10 3  

-2 2
2 2

-2.5 2
2.5 2

9 0 0 0 0 1 1 2 2 2 2 8 10 6  8 5 6  
8 10 3  8 5 3  

-1.5 2
1.5 2

-2.5 2
2.5 2

9 0 0 0 0 1 1 2 2 2 2 12 5 3  12 10 3  
8 5 3  8 10 3  

-2 2
2 2

-2.5 2
2.5 2

9 0 0 0 0 1 1 2 2 2 2 8 10 3  8 5 3  
8 10 6  8 5 6  

-1.5 2
1.5 2

-2.5 2
2.5 2

9 0 0 0 0 1 1 2 2 2 2 8 5 6  8 10 6  
4 5 6  4 10 6  

-2 2
2 2

-2.5 2
2.5 2

9 0 0 0 0 1 1 2 2 2 2 12 5 3  12 0 3  
12 5 0  12 0 0  

-1.5 2
1.5 2

-2.5 2
2.5 2

9 0 0 0 0 1 1 2 2 2 2 12 10 3  12 5 3  
12 10 0  12 5 0  

-1.5 2
1.5 2

-2.5 2
2.5 2

9 0 0 0 0 1 1 2 2 2 2 8 5 6  12 5 6  
8 5 3  12 5 3  

-1.5 2
1.5 2

-2 2
2 2

9 0 0 0 0 1 1 2 2 2 2 8 5 3  12 5 3  
8 5 6  12 5 6  

-1.5 2
1.5 2

-2 2
2 2

9 0 0 0 0 1 1 2 2 2 2 12 5 6  12 0 6  
12 5 3  12 0 3  

-1.5 2
1.5 2

-2.5 2
2.5 2

9 0 0 0 0 1 1 2 2 2 2 8 0 3  12 0 3  
8 0 6  12 0 6  

-1.5 2
1.5 2

-2 2
2 2

9 0 0 0 0 1 1 2 2 2 2 12 0 6  12 5 6  
8 0 6  8 5 6  

-2 2
2 2

-2.5 2
2.5 2

9 0 0 0 0 1 1 2 2 2 2 4 14 6  8 14 6  
4 14 0  8 14 0  

-3 2
3 2

-2 2
2 2

9 0 0 0 0 1 1 2 2 2 2 8 10 6  8 14 6  
4 10 6  4 14 6  

-2 2
2 2

-2 2
2 2

9 0 0 0 0 1 1 2 2 2 2 8 10 6  12 10 6  
8 10 3  12 10 3  

-1.5 2
1.5 2

-2 2
2 2

9 0 0 0 0 1 1 2 2 2 2 12 10 6  12 5 6  
12 10 3  12 5 3  

-1.5 2
1.5 2

-2.5 2
2.5 2

9 0 0 0 0 1 1 2 2 2 2 12 5 6  12 10 6  
8 5 6  8 10 6  

-2 2
2 2

-2.5 2
2.5 2

Triangulations 0

TShapes 264
Ve
1e-07
0 5 0
0 0

0101101
*
Ve
1e-07
4 5 0
0 0

0101101
*
Ed
 1e-07 1 1 0
1  1 0 0 4
2  1 1 0 0 4
2  2 2 0 0 4
2  3 3 0 0 4
2  4 4 0 0 4
0

0101000
+264 0 -263 0 *
Ve
1e-07
4 0 0
0 0

0101101
*
Ed
 1e-07 1 1 0
1  2 0 0 5
2  5 1 0 0 5
2  6 5 0 0 5
2  7 6 0 0 5
2  8 7 0 0 5
0

0101000
+263 0 -261 0 *
Ve
1e-07
0 0 0
0 0

0101101
*
Ed
 1e-07 1 1 0
1  3 0 0 4
2  9 1 0 0 4
2  10 8 0 0 4
0

0101000
+261 0 -259 0 *
Ed
 1e-07 1 1 0
1  4 0 0 5
2  11 1 0 0 5
2  12 9 0 0 5
0

0101000
+259 0 -264 0 *
Wi

0101100
+262 0 +260 0 +258 0 +257 0 *
Fa
0  1e-07 1 0

0101000
+256 0 *
Ve
1.00000000888178e-07
4 5 3
0 0

0101101
*
Ed
 1e-07 1 1 0
1  5 0 0 3
2  13 2 0 0 3
2  14 5 0 0 3
2  15 4 0 0 3
2  16 10 0 0 3
2  17 7 0 0 3
2  18 11 0 0 3
2  19 12 0 0 3
2  20 13 0 0 3
0

0101000
+263 0 -254 0 *
Ve
1.00000000333067e-07
0 5 3
0 0

0101101
*
Ed
 1.00000000222045e-07 1 1 0
1  6 0 0 4
2  21 2 0 0 4
2  22 14 0 0 4
2  23 4 0 0 4
2  24 15 0 0 4
2  25 16 0 0 4
2  26 17 0 0 4
2  27 18 0 0 4
2  28 19 0 0 4
0

0101000
+252 0 -254 0 *
Ed
 1e-07 1 1 0
1  7 0 0 3
2  29 2 0 0 3
2  30 9 0 0 3
2  31 4 0 0 3
2  32 20 0 0 3
0

0101000
+252 0 -264 0 *
Wi

0101100
+262 0 +253 0 -251 0 +250 0 *
Fa
0  1e-07 2 0

0101000
+249 0 *
Ve
1.00000000888178e-07
4 0 3
0 0

0101101
*
Ed
 1e-07 1 1 0
1  8 0 0 3
2  33 5 0 0 3
2  34 8 0 0 3
2  35 7 0 0 3
2  36 21 0 0 3
0

0101000
+261 0 -247 0 *
Ed
 1.00000000444089e-07 1 1 0
1  9 0 0 5
2  37 5 0 0 5
2  38 14 0 0 5
2  39 7 0 0 5
2  40 22 0 0 5
2  41 16 0 0 5
2  42 23 0 0 5
2  43 24 0 0 5
2  44 25 0 0 5
0

0101000
+254 0 -247 0 *
Wi

0101100
+260 0 +246 0 -245 0 -253 0 *
Fa
0  1e-07 5 0

0101000
+244 0 *
Ve
1.00000000444089e-07
0 0 3
0 0

0101101
*
Ed
 1e-07 1 1 0
1  10 0 0 3
2  45 8 0 0 3
2  46 9 0 0 3
0

0101000
+259 0 -242 0 *
Ed
 1.00000000444089e-07 1 1 0
1  11 0 0 4
2  47 8 0 0 4
2  48 14 0 0 4
2  49 16 0 0 4
2  50 26 0 0 4
0

0101000
+247 0 -242 0 *
Wi

0101100
+258 0 +241 0 -240 0 -246 0 *
Fa
0  1e-07 8 0

0101000
+239 0 *
Ed
 1.00000000333067e-07 1 1 0
1  12 0 0 5
2  51 9 0 0 5
2  52 14 0 0 5
2  53 16 0 0 5
2  54 27 0 0 5
0

0101000
+242 0 -252 0 *
Wi

0101100
+257 0 -250 0 -237 0 -241 0 *
Fa
0  1e-07 9 0

0101000
+236 0 *
Wi

0101100
+251 0 +245 0 +240 0 +237 0 *
Fa
0  1e-07 14 0

0101000
+234 0 *
Sh

0101100
+255 0 -248 0 -243 0 -238 0 -235 0 -233 0 *
So

0100000
+232 0 *
Ve
1e-07
0 10 0
0 0

0101101
*
Ve
1e-07
4 10 0
0 0

0101101
*
Ed
 1e-07 1 1 0
1  13 0 0 4
2  55 3 0 0 4
2  56 28 0 0 4
0

0101000
+230 0 -229 0 *
Ed
 1e-07 1 1 0
1  14 0 0 5
2  57 3 0 0 5
2  58 11 0 0 5
2  59 29 0 0 5
2  60 13 0 0 5
0

0101000
+229 0 -263 0 *
Ed
 1e-07 1 1 0
1  15 0 0 5
2  61 3 0 0 5
2  62 20 0 0 5
0

0101000
+264 0 -230 0 *
Wi

0101100
+228 0 +227 0 -262 0 +226 0 *
Fa
0  1e-07 3 0

0101000
+225 0 *
Ve
1.00000000888178e-07
4 10 3
0 0

0101101
*
Ed
 1e-07 1 1 0
1  16 0 0 3
2  63 28 0 0 3
2  64 11 0 0 3
2  65 13 0 0 3
2  66 30 0 0 3
2  67 31 0 0 3
2  68 32 0 0 3
0

0101000
+229 0 -223 0 *
Ve
1.00000000222045e-07
0 10 3
0 0

0101101
*
Ed
 1.00000000222045e-07 1 1 0
1  17 0 0 4
2  69 28 0 0 4
2  70 15 0 0 4
2  71 18 0 0 4
2  72 33 0 0 4
0

0101000
+221 0 -223 0 *
Ed
 1e-07 1 1 0
1  18 0 0 3
2  73 28 0 0 3
2  74 20 0 0 3
0

0101000
+221 0 -230 0 *
Wi

0101100
+228 0 +222 0 -220 0 +219 0 *
Fa
0  1e-07 28 0

0101000
+218 0 *
Ed
 1e-07 1 1 0
1  19 0 0 5
2  75 11 0 0 5
2  76 15 0 0 5
2  77 13 0 0 5
2  78 34 0 0 5
2  79 18 0 0 5
2  80 35 0 0 5
2  81 36 0 0 5
2  82 37 0 0 5
0

0101000
+223 0 -254 0 *
Wi

0101100
+227 0 +253 0 -216 0 -222 0 *
Fa
0  1e-07 11 0

0101000
+215 0 *
Ed
 1e-07 1 1 0
1  20 0 0 5
2  83 20 0 0 5
2  84 15 0 0 5
2  85 18 0 0 5
2  86 38 0 0 5
0

0101000
+252 0 -221 0 *
Wi

0101100
+226 0 -219 0 -213 0 +250 0 *
Fa
0  1e-07 20 0

0101000
+212 0 *
Wi

0101100
+220 0 +216 0 -251 0 +213 0 *
Fa
0  1e-07 15 0

0101000
+210 0 *
Sh

0101100
+224 0 -217 0 -214 0 +248 0 -211 0 -209 0 *
So

0100000
+208 0 *
Ve
1e-07
8 5 0
0 0

0101101
*
Ed
 1e-07 1 1 0
1  21 0 0 4
2  87 6 0 0 4
2  88 10 0 0 4
2  89 29 0 0 4
2  90 12 0 0 4
0

0101000
+263 0 -206 0 *
Ve
1e-07
8 0 0
0 0

0101101
*
Ed
 1e-07 1 1 0
1  22 0 0 5
2  91 6 0 0 5
2  92 39 0 0 5
2  93 40 0 0 5
2  94 41 0 0 5
0

0101000
+206 0 -204 0 *
Ed
 1e-07 1 1 0
1  23 0 0 4
2  95 6 0 0 4
2  96 21 0 0 4
0

0101000
+204 0 -261 0 *
Wi

0101100
+205 0 +203 0 +202 0 -260 0 *
Fa
0  1e-07 6 0

0101000
+201 0 *
Ve
1.00000000888178e-07
8 5 3
0 0

0101101
*
Ed
 1e-07 1 1 0
1  24 0 0 3
2  97 10 0 0 3
2  98 39 0 0 3
2  99 12 0 0 3
2  100 42 0 0 3
2  101 41 0 0 3
2  102 43 0 0 3
2  103 44 0 0 3
2  104 45 0 0 3
0

0101000
+206 0 -199 0 *
Ed
 1.00000000888178e-07 1 1 0
1  25 0 0 4
2  105 10 0 0 4
2  106 22 0 0 4
2  107 12 0 0 4
2  108 34 0 0 4
2  109 24 0 0 4
2  110 46 0 0 4
2  111 36 0 0 4
2  112 47 0 0 4
0

0101000
+254 0 -199 0 *
Wi

0101100
+205 0 +198 0 -197 0 -253 0 *
Fa
0  1e-07 10 0

0101000
+196 0 *
Ve
1.00000000888178e-07
8 0 3
0 0

0101101
*
Ed
 1e-07 1 1 0
1  26 0 0 3
2  113 39 0 0 3
2  114 21 0 0 3
2  115 41 0 0 3
2  116 48 0 0 3
0

0101000
+204 0 -194 0 *
Ed
 1.00000000444089e-07 1 1 0
1  27 0 0 5
2  117 39 0 0 5
2  118 22 0 0 5
2  119 24 0 0 5
2  120 41 0 0 5
2  121 49 0 0 5
2  122 50 0 0 5
2  123 51 0 0 5
2  124 52 0 0 5
0

0101000
+199 0 -194 0 *
Wi

0101100
+203 0 +193 0 -192 0 -198 0 *
Fa
0  1e-07 39 0

0101000
+191 0 *
Ed
 1.00000000888178e-07 1 1 0
1  28 0 0 4
2  125 21 0 0 4
2  126 22 0 0 4
2  127 24 0 0 4
2  128 53 0 0 4
0

0101000
+194 0 -247 0 *
Wi

0101100
+202 0 +246 0 -189 0 -193 0 *
Fa
0  1e-07 21 0

0101000
+188 0 *
Wi

0101100
+197 0 +192 0 +189 0 -245 0 *
Fa
0  1e-07 22 0

0101000
+186 0 *
Sh

0101100
+200 0 -195 0 -190 0 -187 0 +243 0 -185 0 *
So

0100000
+184 0 *
Ve
1.00000000333067e-07
4 5 6
0 0

0101101
*
Ed
 1e-07 1 1 0
1  29 0 0 3
2  129 17 0 0 3
2  130 23 0 0 3
2  131 46 0 0 3
2  132 25 0 0 3
2  133 35 0 0 3
2  134 19 0 0 3
2  135 47 0 0 3
2  136 37 0 0 3
0

0101000
+254 0 -182 0 *
Ve
1.00000000333067e-07
0 5 6
0 0

0101101
*
Ed
 1.00000000222045e-07 1 1 0
1  30 0 0 4
2  137 17 0 0 4
2  138 54 0 0 4
2  139 19 0 0 4
2  140 55 0 0 4
0

0101000
+180 0 -182 0 *
Ed
 1e-07 1 1 0
1  31 0 0 3
2  141 17 0 0 3
2  142 27 0 0 3
2  143 19 0 0 3
2  144 38 0 0 3
0

0101000
+180 0 -252 0 *
Wi

0101100
+251 0 +181 0 -179 0 +178 0 *
Fa
0  1e-07 17 0

0101000
+177 0 *
Ve
1.00000000333067e-07
4 0 6
0 0

0101101
*
Ed
 1e-07 1 1 0
1  32 0 0 3
2  145 23 0 0 3
2  146 26 0 0 3
2  147 25 0 0 3
2  148 53 0 0 3
0

0101000
+247 0 -175 0 *
Ed
 1.00000000333067e-07 1 1 0
1  33 0 0 5
2  149 23 0 0 5
2  150 54 0 0 5
2  151 25 0 0 5
2  152 56 0 0 5
0

0101000
+182 0 -175 0 *
Wi

0101100
+245 0 +174 0 -173 0 -181 0 *
Fa
0  1e-07 23 0

0101000
+172 0 *
Ve
1.00000000333067e-07
0 0 6
0 0

0101101
*
Ed
 1e-07 1 1 0
1  34 0 0 3
2  153 26 0 0 3
2  154 27 0 0 3
0

0101000
+242 0 -170 0 *
Ed
 1e-07 1 1 0
1  35 0 0 4
2  155 26 0 0 4
2  156 54 0 0 4
0

0101000
+175 0 -170 0 *
Wi

0101100
+240 0 +169 0 -168 0 -174 0 *
Fa
0  1e-07 26 0

0101000
+167 0 *
Ed
 1.00000000333067e-07 1 1 0
1  36 0 0 5
2  157 27 0 0 5
2  158 54 0 0 5
0

0101000
+170 0 -180 0 *
Wi

0101100
+237 0 -178 0 -165 0 -169 0 *
Fa
0  1e-07 27 0

0101000
+164 0 *
Wi

0101100
+179 0 +173 0 +168 0 +165 0 *
Fa
0  1e-07 54 0

0101000
+162 0 *
Sh

0101100
+233 0 -176 0 -171 0 -166 0 -163 0 -161 0 *
So

0100000
+160 0 *
Ve
1e-07
8 10 0
0 0

0101101
*
Ed
 1e-07 1 1 0
1  37 0 0 4
2  159 29 0 0 4
2  160 30 0 0 4
2  161 57 0 0 4
2  162 31 0 0 4
0

0101000
+229 0 -158 0 *
Ed
 1e-07 1 1 0
1  38 0 0 5
2  163 29 0 0 5
2  164 43 0 0 5
2  165 58 0 0 5
2  166 45 0 0 5
0

0101000
+158 0 -206 0 *
Wi

0101100
+157 0 +156 0 -205 0 -227 0 *
Fa
0  1e-07 29 0

0101000
+155 0 *
Ve
1.00000000888178e-07
8 10 3
0 0

0101101
*
Ed
 1e-07 1 1 0
1  39 0 0 3
2  167 30 0 0 3
2  168 43 0 0 3
2  169 45 0 0 3
2  170 31 0 0 3
2  171 59 0 0 3
2  172 60 0 0 3
0

0101000
+158 0 -153 0 *
Ed
 1.00000000888178e-07 1 1 0
1  40 0 0 4
2  173 30 0 0 4
2  174 34 0 0 4
2  175 36 0 0 4
2  176 31 0 0 4
2  177 61 0 0 4
0

0101000
+223 0 -153 0 *
Wi

0101100
+157 0 +152 0 -151 0 -222 0 *
Fa
0  1e-07 30 0

0101000
+150 0 *
Ed
 1e-07 1 1 0
1  41 0 0 5
2  178 43 0 0 5
2  179 34 0 0 5
2  180 36 0 0 5
2  181 45 0 0 5
2  182 62 0 0 5
2  183 63 0 0 5
2  184 64 0 0 5
2  185 65 0 0 5
0

0101000
+153 0 -199 0 *
Wi

0101100
+156 0 +198 0 -148 0 -152 0 *
Fa
0  1e-07 43 0

0101000
+147 0 *
Wi

0101100
+151 0 +148 0 -197 0 -216 0 *
Fa
0  1e-07 34 0

0101000
+145 0 *
Sh

0101100
+154 0 -149 0 -146 0 +195 0 +214 0 -144 0 *
So

0100000
+143 0 *
Ve
1.00000000222045e-07
4 10 6
0 0

0101101
*
Ed
 1e-07 1 1 0
1  42 0 0 3
2  186 33 0 0 3
2  187 35 0 0 3
2  188 37 0 0 3
2  189 31 0 0 3
2  190 32 0 0 3
2  191 61 0 0 3
0

0101000
+223 0 -141 0 *
Ve
1.00000000222045e-07
0 10 6
0 0

0101101
*
Ed
 1.00000000222045e-07 1 1 0
1  43 0 0 4
2  192 33 0 0 4
2  193 55 0 0 4
0

0101000
+139 0 -141 0 *
Ed
 1e-07 1 1 0
1  44 0 0 3
2  194 33 0 0 3
2  195 38 0 0 3
0

0101000
+139 0 -221 0 *
Wi

0101100
+220 0 +140 0 -138 0 +137 0 *
Fa
0  1e-07 33 0

0101000
+136 0 *
Ed
 1e-07 1 1 0
1  45 0 0 5
2  196 35 0 0 5
2  197 55 0 0 5
2  198 37 0 0 5
2  199 66 0 0 5
0

0101000
+141 0 -182 0 *
Wi

0101100
+216 0 +181 0 -134 0 -140 0 *
Fa
0  1e-07 35 0

0101000
+133 0 *
Ed
 1e-07 1 1 0
1  46 0 0 5
2  200 38 0 0 5
2  201 55 0 0 5
0

0101000
+180 0 -139 0 *
Wi

0101100
+213 0 -137 0 -131 0 +178 0 *
Fa
0  1e-07 38 0

0101000
+130 0 *
Wi

0101100
+138 0 +134 0 -179 0 +131 0 *
Fa
0  1e-07 55 0

0101000
+128 0 *
Sh

0101100
+209 0 -135 0 -132 0 +176 0 -129 0 -127 0 *
So

0100000
+126 0 *
Ve
1e-07
12 5 0
0 0

0101101
*
Ed
 1e-07 1 1 0
1  47 0 0 4
2  202 40 0 0 4
2  203 42 0 0 4
2  204 58 0 0 4
2  205 44 0 0 4
0

0101000
+206 0 -124 0 *
Ve
1e-07
12 0 0
0 0

0101101
*
Ed
 1e-07 1 1 0
1  48 0 0 5
2  206 40 0 0 5
2  207 67 0 0 5
0

0101000
+124 0 -122 0 *
Ed
 1e-07 1 1 0
1  49 0 0 4
2  208 40 0 0 4
2  209 48 0 0 4
0

0101000
+122 0 -204 0 *
Wi

0101100
+123 0 +121 0 +120 0 -203 0 *
Fa
0  1e-07 40 0

0101000
+119 0 *
Ve
1.00000000444089e-07
12 5 3
0 0

0101101
*
Ed
 1e-07 1 1 0
1  50 0 0 3
2  210 42 0 0 3
2  211 67 0 0 3
2  212 44 0 0 3
2  213 68 0 0 3
0

0101000
+124 0 -117 0 *
Ed
 1e-07 1 1 0
1  51 0 0 4
2  214 42 0 0 4
2  215 49 0 0 4
2  216 44 0 0 4
2  217 62 0 0 4
2  218 51 0 0 4
2  219 69 0 0 4
2  220 64 0 0 4
2  221 70 0 0 4
0

0101000
+199 0 -117 0 *
Wi

0101100
+123 0 +116 0 -115 0 -198 0 *
Fa
0  1e-07 42 0

0101000
+114 0 *
Ve
1.00000000444089e-07
12 0 3
0 0

0101101
*
Ed
 1e-07 1 1 0
1  52 0 0 3
2  222 67 0 0 3
2  223 48 0 0 3
0

0101000
+122 0 -112 0 *
Ed
 1.00000000444089e-07 1 1 0
1  53 0 0 5
2  224 67 0 0 5
2  225 49 0 0 5
2  226 51 0 0 5
2  227 71 0 0 5
0

0101000
+117 0 -112 0 *
Wi

0101100
+121 0 +111 0 -110 0 -116 0 *
Fa
0  1e-07 67 0

0101000
+109 0 *
Ed
 1e-07 1 1 0
1  54 0 0 4
2  228 48 0 0 4
2  229 49 0 0 4
2  230 51 0 0 4
2  231 72 0 0 4
0

0101000
+112 0 -194 0 *
Wi

0101100
+120 0 +193 0 -107 0 -111 0 *
Fa
0  1e-07 48 0

0101000
+106 0 *
Wi

0101100
+115 0 +110 0 +107 0 -192 0 *
Fa
0  1e-07 49 0

0101000
+104 0 *
Sh

0101100
+118 0 -113 0 -108 0 -105 0 +190 0 -103 0 *
So

0100000
+102 0 *
Ve
1.00000000333067e-07
8 5 6
0 0

0101101
*
Ed
 1e-07 1 1 0
1  55 0 0 3
2  232 46 0 0 3
2  233 50 0 0 3
2  234 47 0 0 3
2  235 69 0 0 3
2  236 52 0 0 3
2  237 63 0 0 3
2  238 70 0 0 3
2  239 65 0 0 3
0

0101000
+199 0 -100 0 *
Ed
 1e-07 1 1 0
1  56 0 0 4
2  240 46 0 0 4
2  241 56 0 0 4
2  242 47 0 0 4
2  243 66 0 0 4
0

0101000
+182 0 -100 0 *
Wi

0101100
+197 0 +99 0 -98 0 -181 0 *
Fa
0  1e-07 46 0

0101000
+97 0 *
Ve
1.00000000333067e-07
8 0 6
0 0

0101101
*
Ed
 1e-07 1 1 0
1  57 0 0 3
2  244 50 0 0 3
2  245 53 0 0 3
2  246 52 0 0 3
2  247 72 0 0 3
0

0101000
+194 0 -95 0 *
Ed
 1.00000000333067e-07 1 1 0
1  58 0 0 5
2  248 50 0 0 5
2  249 56 0 0 5
2  250 52 0 0 5
2  251 73 0 0 5
0

0101000
+100 0 -95 0 *
Wi

0101100
+192 0 +94 0 -93 0 -99 0 *
Fa
0  1e-07 50 0

0101000
+92 0 *
Ed
 1e-07 1 1 0
1  59 0 0 4
2  252 53 0 0 4
2  253 56 0 0 4
0

0101000
+95 0 -175 0 *
Wi

0101100
+189 0 +174 0 -90 0 -94 0 *
Fa
0  1e-07 53 0

0101000
+89 0 *
Wi

0101100
+98 0 +93 0 +90 0 -173 0 *
Fa
0  1e-07 56 0

0101000
+87 0 *
Sh

0101100
+185 0 -96 0 -91 0 -88 0 +171 0 -86 0 *
So

0100000
+85 0 *
Ve
1e-07
4 14 0
0 0

0101101
*
Ve
1e-07
8 14 0
0 0

0101101
*
Ed
 1e-07 1 1 0
1  60 0 0 4
2  254 57 0 0 4
2  255 74 0 0 4
0

0101000
+83 0 -82 0 *
Ed
 1e-07 1 1 0
1  61 0 0 4
2  256 57 0 0 4
2  257 60 0 0 4
0

0101000
+82 0 -158 0 *
Ed
 1e-07 1 1 0
1  62 0 0 4
2  258 57 0 0 4
2  259 32 0 0 4
0

0101000
+229 0 -83 0 *
Wi

0101100
+81 0 +80 0 -157 0 +79 0 *
Fa
0  1e-07 57 0

0101000
+78 0 *
Ve
1e-07
8 14 6
0 0

0101101
*
Ed
 1e-07 1 1 0
1  63 0 0 6
2  260 74 0 0 6
2  261 60 0 0 6
0

0101000
+82 0 -76 0 *
Ve
1e-07
4 14 6
0 0

0101101
*
Ed
 1e-07 1 1 0
1  64 0 0 4
2  262 74 0 0 4
2  263 75 0 0 4
0

0101000
+74 0 -76 0 *
Ed
 1e-07 1 1 0
1  65 0 0 6
2  264 74 0 0 6
2  265 32 0 0 6
0

0101000
+74 0 -83 0 *
Wi

0101100
+81 0 +75 0 -73 0 +72 0 *
Fa
0  1e-07 74 0

0111000
+71 0 *
Ve
1e-07
8 10 6
0 0

0101101
*
Ed
 1e-07 1 1 0
1  66 0 0 3
2  266 61 0 0 3
2  267 63 0 0 3
2  268 65 0 0 3
2  269 31 0 0 3
2  270 60 0 0 3
2  271 76 0 0 3
0

0101000
+153 0 -69 0 *
Ed
 1e-07 1 1 0
1  67 0 0 4
2  272 60 0 0 4
2  273 75 0 0 4
0

0101000
+76 0 -69 0 *
Wi

0101100
+80 0 +152 0 +68 0 -67 0 -75 0 *
Fa
0  1e-07 60 0

0101000
+66 0 *
Ed
 1e-07 1 1 0
1  68 0 0 4
2  274 61 0 0 4
2  275 66 0 0 4
2  276 31 0 0 4
2  277 75 0 0 4
0

0101000
+141 0 -69 0 *
Wi

0101100
+151 0 +68 0 -64 0 -140 0 *
Fa
0  1e-07 61 0

0101000
+63 0 *
Ed
 1e-07 1 1 0
1  69 0 0 4
2  278 32 0 0 4
2  279 75 0 0 4
0

0101000
+141 0 -74 0 *
Wi

0101100
+79 0 -72 0 -61 0 -222 0 -140 0 *
Fa
0  1e-07 32 0

0101000
+60 0 *
Wi

0101100
+73 0 +67 0 -64 0 +61 0 *
Fa
0  1e-07 75 0

0101000
+58 0 *
Sh

0101100
+77 0 -70 0 -65 0 +149 0 +62 0 -59 0 -57 0 *
So

0100000
+56 0 *
Ve
1e-07
12 10 0
0 0

0101101
*
Ed
 1e-07 1 1 0
1  70 0 0 4
2  280 58 0 0 4
2  281 59 0 0 4
0

0101000
+158 0 -54 0 *
Ed
 1e-07 1 1 0
1  71 0 0 5
2  282 58 0 0 5
2  283 68 0 0 5
0

0101000
+54 0 -124 0 *
Wi

0101100
+53 0 +52 0 -123 0 -156 0 *
Fa
0  1e-07 58 0

0101000
+51 0 *
Ve
1e-07
12 10 3
0 0

0101101
*
Ed
 1e-07 1 1 0
1  72 0 0 3
2  284 59 0 0 3
2  285 68 0 0 3
0

0101000
+54 0 -49 0 *
Ed
 1e-07 1 1 0
1  73 0 0 4
2  286 59 0 0 4
2  287 62 0 0 4
2  288 64 0 0 4
2  289 76 0 0 4
0

0101000
+153 0 -49 0 *
Wi

0101100
+53 0 +48 0 -47 0 -152 0 *
Fa
0  1e-07 59 0

0101000
+46 0 *
Ed
 1e-07 1 1 0
1  74 0 0 5
2  290 68 0 0 5
2  291 62 0 0 5
2  292 64 0 0 5
2  293 77 0 0 5
0

0101000
+49 0 -117 0 *
Wi

0101100
+52 0 +116 0 -44 0 -48 0 *
Fa
0  1e-07 68 0

0101000
+43 0 *
Wi

0101100
+47 0 +44 0 -115 0 -148 0 *
Fa
0  1e-07 62 0

0101000
+41 0 *
Sh

0101100
+50 0 -45 0 -42 0 +113 0 +146 0 -40 0 *
So

0100000
+39 0 *
Ed
 1e-07 1 1 0
1  75 0 0 5
2  294 63 0 0 5
2  295 66 0 0 5
2  296 65 0 0 5
2  297 78 0 0 5
0

0101000
+69 0 -100 0 *
Wi

0101100
+148 0 +99 0 -37 0 -68 0 *
Fa
0  1e-07 63 0

0101000
+36 0 *
Wi

0101100
+64 0 +37 0 -98 0 -134 0 *
Fa
0  1e-07 66 0

0101000
+34 0 *
Sh

0101100
+144 0 -62 0 -35 0 +96 0 +132 0 -33 0 *
So

0100000
+32 0 *
Ve
1e-07
12 5 6
0 0

0101101
*
Ed
 1e-07 1 1 0
1  76 0 0 3
2  298 69 0 0 3
2  299 71 0 0 3
2  300 70 0 0 3
2  301 77 0 0 3
0

0101000
+117 0 -30 0 *
Ed
 1e-07 1 1 0
1  77 0 0 4
2  302 69 0 0 4
2  303 73 0 0 4
2  304 70 0 0 4
2  305 78 0 0 4
0

0101000
+100 0 -30 0 *
Wi

0101100
+115 0 +29 0 -28 0 -99 0 *
Fa
0  1e-07 69 0

0101000
+27 0 *
Ve
1e-07
12 0 6
0 0

0101101
*
Ed
 1e-07 1 1 0
1  78 0 0 3
2  306 71 0 0 3
2  307 72 0 0 3
0

0101000
+112 0 -25 0 *
Ed
 1e-07 1 1 0
1  79 0 0 5
2  308 71 0 0 5
2  309 73 0 0 5
0

0101000
+30 0 -25 0 *
Wi

0101100
+110 0 +24 0 -23 0 -29 0 *
Fa
0  1e-07 71 0

0101000
+22 0 *
Ed
 1e-07 1 1 0
1  80 0 0 4
2  310 72 0 0 4
2  311 73 0 0 4
0

0101000
+25 0 -95 0 *
Wi

0101100
+107 0 +94 0 -20 0 -24 0 *
Fa
0  1e-07 72 0

0101000
+19 0 *
Wi

0101100
+28 0 +23 0 +20 0 -93 0 *
Fa
0  1e-07 73 0

0101000
+17 0 *
Sh

0101100
+103 0 -26 0 -21 0 -18 0 +91 0 -16 0 *
So

0100000
+15 0 *
Ve
1e-07
12 10 6
0 0

0101101
*
Ed
 1e-07 1 1 0
1  81 0 0 3
2  312 76 0 0 3
2  313 77 0 0 3
0

0101000
+49 0 -13 0 *
Ed
 1e-07 1 1 0
1  82 0 0 4
2  314 76 0 0 4
2  315 78 0 0 4
0

0101000
+69 0 -13 0 *
Wi

0101100
+47 0 +12 0 -11 0 -68 0 *
Fa
0  1e-07 76 0

0101000
+10 0 *
Ed
 1e-07 1 1 0
1  83 0 0 5
2  316 77 0 0 5
2  317 78 0 0 5
0

0101000
+13 0 -30 0 *
Wi

0101100
+44 0 +29 0 -8 0 -12 0 *
Fa
0  1e-07 77 0

0101000
+7 0 *
Wi

0101100
+11 0 +8 0 -28 0 -37 0 *
Fa
0  1e-07 78 0

0101000
+5 0 *
Sh

0101100
+40 0 -9 0 -6 0 +26 0 +35 0 -4 0 *
So

0100000
+3 0 *
CS

0101000
+231 0 +207 0 +183 0 +159 0 +142 0 +125 0 +101 0 +84 0 +55 0 +38 0 
+31 0 +14 0 +2 0 *

+1 0 